<svg width="24" height="24" viewBox="0 0 24 24" fill="none" xmlns="http://www.w3.org/2000/svg">
<path d="M16.1924 3.25C16.6894 3.25003 17.1148 3.42635 17.4688 3.7793C17.8227 4.13261 18 4.56022 18 5.06152V8H16.5V5.05762C16.5 4.96778 16.4708 4.8936 16.4131 4.83594C16.3555 4.77858 16.2819 4.75003 16.1924 4.75H5.80762C5.71806 4.75003 5.64449 4.77858 5.58691 4.83594C5.52925 4.8936 5.5 4.96778 5.5 5.05762V18.75C5.50003 18.8398 5.52928 18.9131 5.58691 18.9707C5.64455 19.0283 5.71784 19.0576 5.80762 19.0576H13.25V20.5576H5.80762C5.31051 20.5576 4.88522 20.3803 4.53125 20.0264C4.17728 19.6724 4.00003 19.2471 4 18.75V5.05762C4 4.56049 4.1773 4.13524 4.53125 3.78125C4.88522 3.42728 5.31051 3.25003 5.80762 3.25H16.1924ZM17.3506 10.96C17.6088 11.0094 17.8487 11.0852 18.0693 11.1875C18.4988 11.3828 18.8363 11.6551 19.0811 12.0039C19.3257 12.3502 19.4522 12.7488 19.46 13.1992H18.0654C18.029 12.8582 17.8751 12.5924 17.6045 12.4023C17.5269 12.3473 17.4417 12.3008 17.3506 12.2617V14.4834C17.6049 14.5495 17.8515 14.6323 18.0889 14.7344C18.37 14.8541 18.6215 15.0053 18.8428 15.1875C19.0666 15.3697 19.2439 15.59 19.374 15.8477C19.5042 16.1054 19.5693 16.4076 19.5693 16.7539C19.5693 17.2226 19.4494 17.6355 19.21 17.9922C18.9704 18.3462 18.6238 18.6237 18.1709 18.8242C17.9258 18.9319 17.6519 19.0085 17.3506 19.0576V20H15.8506V19.0771C15.5072 19.0315 15.1946 18.9504 14.9131 18.832C14.4575 18.6394 14.1006 18.358 13.8428 17.9883C13.5876 17.6185 13.4495 17.168 13.4287 16.6367H14.8545C14.8753 16.9153 14.9613 17.1471 15.1123 17.332C15.2633 17.5168 15.4601 17.655 15.7021 17.7461C15.7504 17.764 15.8001 17.7786 15.8506 17.793V15.418L15.7725 15.3984C15.1138 15.2292 14.5927 14.9725 14.21 14.6289C13.8298 14.2826 13.6396 13.8229 13.6396 13.25C13.6396 12.7786 13.7673 12.3659 14.0225 12.0117C14.2803 11.6577 14.6306 11.3828 15.0732 11.1875C15.3149 11.0795 15.574 11.0012 15.8506 10.9521V10H17.3506V10.96ZM17.3506 17.7422C17.59 17.6458 17.7777 17.5129 17.9131 17.3438C18.0484 17.1719 18.1175 16.9712 18.1201 16.7422C18.1175 16.534 18.0562 16.3619 17.9365 16.2266C17.8168 16.0886 17.6486 15.9739 17.4326 15.8828C17.406 15.8711 17.3783 15.86 17.3506 15.8486V17.7422ZM15.7803 12.2539C15.5642 12.345 15.3988 12.4689 15.2842 12.625C15.1696 12.7812 15.111 12.9596 15.1084 13.1602C15.1084 13.3268 15.1462 13.4714 15.2217 13.5938C15.2998 13.7161 15.4054 13.8204 15.5381 13.9062C15.6343 13.9666 15.7394 14.0168 15.8506 14.0635V12.2285C15.8269 12.2371 15.803 12.2443 15.7803 12.2539ZM12.25 12.2129H7.75V10.7129H12.25V12.2129ZM14.25 8.5H7.75V6.88477H14.25V8.5Z" fill="#A3A3A3"/>
</svg>
