<svg width="24" height="25" viewBox="0 0 24 25" fill="none" xmlns="http://www.w3.org/2000/svg">
<path d="M4 6.82843L3.46967 6.2981C3.17678 6.59099 3.17678 7.06586 3.46967 7.35876L4 6.82843ZM6.82843 4L7.35876 3.46967C7.06586 3.17678 6.59099 3.17678 6.2981 3.46967L6.82843 4ZM9.65685 6.82843V6.07843C9.45794 6.07843 9.26718 6.15744 9.12652 6.2981L9.65685 6.82843ZM6.82843 9.65685L6.2981 10.1872C6.43875 10.3278 6.62951 10.4069 6.82843 10.4069C7.02734 10.4069 7.2181 10.3278 7.35876 10.1872L6.82843 9.65685ZM15.7087 6.82843L15.7087 6.07843H15.7087V6.82843ZM8.29464 18.0001V17.2501V17.2501V18.0001ZM5.50958 15.2057L6.25958 15.2082V15.2082L5.50958 15.2057ZM18.5094 9.61974L19.2594 9.6172V9.6172L18.5094 9.61974ZM19.0001 17.9999L19.5304 18.5302L20.0608 17.9999L19.5304 17.4696L19.0001 17.9999ZM4 6.82843L4.53033 7.35876L7.35876 4.53033L6.82843 4L6.2981 3.46967L3.46967 6.2981L4 6.82843ZM9.65685 6.82843L9.12652 6.2981L6.2981 9.12652L6.82843 9.65685L7.35876 10.1872L10.1872 7.35876L9.65685 6.82843ZM6.82843 9.65685L7.35876 9.12652L4.53033 6.2981L4 6.82843L3.46967 7.35876L6.2981 10.1872L6.82843 9.65685ZM6.82843 4L6.2981 4.53033L7.96983 6.20206L8.50016 5.67173L9.03049 5.1414L7.35876 3.46967L6.82843 4ZM9.65685 6.82843V7.57843H15.7087V6.82843V6.07843H9.65685V6.82843ZM15.7087 12.43V11.68H8.29464V12.43V13.18H15.7087V12.43ZM8.29464 18.0001V18.7501L18.5002 18.7501V18.0001V17.2501L8.29464 17.2501V18.0001ZM5.50958 15.2057L4.75959 15.2031C4.75299 17.1602 6.33761 18.7501 8.29464 18.7501V18.0001V17.2501C7.16802 17.2501 6.25578 16.3348 6.25958 15.2082L5.50958 15.2057ZM8.29464 12.43V11.68C6.34693 11.68 4.76616 13.2554 4.75959 15.2031L5.50958 15.2057L6.25958 15.2082C6.26336 14.087 7.17338 13.18 8.29464 13.18V12.43ZM18.5094 9.61974L17.7594 9.62227C17.7633 10.7576 16.844 11.68 15.7087 11.68V12.43V13.18C17.6744 13.18 19.2661 11.5829 19.2594 9.6172L18.5094 9.61974ZM15.7087 6.82843L15.7087 7.57843C16.8386 7.57843 17.7556 8.49237 17.7594 9.62227L18.5094 9.61974L19.2594 9.6172C19.2528 7.66086 17.665 6.07843 15.7087 6.07843L15.7087 6.82843ZM17.0001 15.9999L16.4698 16.5302L18.4698 18.5302L19.0001 17.9999L19.5304 17.4696L17.5304 15.4696L17.0001 15.9999ZM19.0001 17.9999L18.4698 17.4696L16.4698 19.4696L17.0001 19.9999L17.5304 20.5302L19.5304 18.5302L19.0001 17.9999Z" fill="black"/>
</svg>
