<svg width="24" height="24" viewBox="0 0 24 24" fill="none" xmlns="http://www.w3.org/2000/svg">
<g transform="translate(3.5, 3.846)">
<path d="M1.80775 16.3078C1.30258 16.3078 0.875 16.1328 0.525 15.7828C0.175 15.4328 0 15.0052 0 14.5V3.30794C0 2.80278 0.175 2.37519 0.525 2.02519C0.875 1.67519 1.30258 1.50019 1.80775 1.50019H3.19225V0H4.73075V1.50019H12.3077V0H13.8077V1.50019H15.1923C15.6974 1.50019 16.125 1.67519 16.475 2.02519C16.825 2.37519 17 2.80278 17 3.30794V14.5C17 15.0052 16.825 15.4328 16.475 15.7828C16.125 16.1328 15.6974 16.3078 15.1923 16.3078H1.80775ZM1.80775 14.8077H15.1923C15.2693 14.8077 15.3398 14.7757 15.4038 14.7115C15.4679 14.6475 15.5 14.577 15.5 14.5V7.30794H1.5V14.5C1.5 14.577 1.53208 14.6475 1.59625 14.7115C1.66025 14.7757 1.73075 14.8077 1.80775 14.8077ZM1.5 5.80794H15.5V3.30794C15.5 3.23094 15.4679 3.16044 15.4038 3.09644C15.3398 3.03228 15.2693 3.00019 15.1923 3.00019H1.80775C1.73075 3.00019 1.66025 3.03228 1.59625 3.09644C1.53208 3.16044 1.5 3.23094 1.5 3.30794V5.80794Z" fill="#A3A3A3"/>
</g>
</svg>
