<svg width="24" height="24" viewBox="0 0 24 24" fill="none" xmlns="http://www.w3.org/2000/svg">
<path d="M13.459 6.04102C13.0451 6.04089 12.7093 5.70491 12.709 5.29102V5.04102H11.2842V5.29102C11.2839 5.70479 10.9479 6.04069 10.5342 6.04102H4.07129V4.54102H9.78418V4.29102C9.78418 3.8768 10.12 3.54102 10.5342 3.54102H13.459C13.873 3.5412 14.209 3.87691 14.209 4.29102V4.54102H19.9219V6.04102H13.459ZM6.19336 20.9531C5.78876 20.9531 5.4567 20.6319 5.44336 20.2275L5.04004 7.81348C5.03344 7.61045 5.10969 7.41353 5.25098 7.26758C5.39226 7.12164 5.58691 7.03906 5.79004 7.03906H18.2041C18.4071 7.03926 18.602 7.1217 18.7432 7.26758C18.884 7.41348 18.9597 7.61076 18.9531 7.81348L18.543 20.2275C18.5294 20.6316 18.1973 20.9529 17.793 20.9531H6.19336ZM17.4287 8.53906H6.56445L6.91895 19.4531H17.0674L17.4287 8.53906ZM13.7998 17.792L13.0498 17.7725L13.25 9.98047L14.75 10.0195L14.5498 17.8105L13.7998 17.792ZM9.25 10.0195L10.75 9.98047L10.9502 17.7725L10.2002 17.792L9.4502 17.8105L9.25 10.0195Z" fill="#3D3D3D"/>
</svg>
