<svg width="30" height="30" viewBox="0 0 30 30" fill="none" xmlns="http://www.w3.org/2000/svg">
<path fill-rule="evenodd" clip-rule="evenodd" d="M12 16.2499C12.9665 16.2499 13.75 17.0334 13.75 17.9999V23.9999C13.7499 24.9663 12.9664 25.7499 12 25.7499H6C5.03357 25.7499 4.25011 24.9663 4.25 23.9999V17.9999C4.25 17.0334 5.0335 16.2499 6 16.2499H12ZM24 16.2499C24.9665 16.2499 25.75 17.0334 25.75 17.9999V23.9999C25.7499 24.9663 24.9664 25.7499 24 25.7499H18C17.0336 25.7499 16.2501 24.9663 16.25 23.9999V17.9999C16.25 17.0334 17.0335 16.2499 18 16.2499H24ZM6 17.7499C5.86193 17.7499 5.75 17.8618 5.75 17.9999V23.9999C5.75011 24.1378 5.862 24.2499 6 24.2499H12C12.138 24.2499 12.2499 24.1378 12.25 23.9999V17.9999C12.25 17.8618 12.1381 17.7499 12 17.7499H6ZM18 17.7499C17.8619 17.7499 17.75 17.8618 17.75 17.9999V23.9999C17.7501 24.1378 17.862 24.2499 18 24.2499H24C24.138 24.2499 24.2499 24.1378 24.25 23.9999V17.9999C24.25 17.8618 24.1381 17.7499 24 17.7499H18ZM19.7627 4.17663C20.4461 3.49321 21.5539 3.49321 22.2373 4.17663L25.8242 7.76354C26.5071 8.447 26.5075 9.55492 25.8242 10.2381L22.2373 13.8251C21.554 14.5077 20.446 14.5077 19.7627 13.8251L16.1758 10.2381C15.4925 9.55491 15.4929 8.447 16.1758 7.76354L19.7627 4.17663ZM12 4.24987C12.9665 4.24987 13.75 5.03337 13.75 5.99987V11.9999C13.7499 12.9663 12.9664 13.7499 12 13.7499H6C5.03357 13.7499 4.25011 12.9663 4.25 11.9999V5.99987C4.25 5.03337 5.0335 4.24987 6 4.24987H12ZM21.1768 5.23717C21.0791 5.13954 20.9209 5.13954 20.8232 5.23717L17.2363 8.82409C17.1392 8.92176 17.1389 9.08016 17.2363 9.1776L20.8232 12.7635C20.9208 12.8608 21.0792 12.8608 21.1768 12.7635L24.7637 9.1776C24.8611 9.08015 24.8608 8.92176 24.7637 8.82409L21.1768 5.23717ZM6 5.74987C5.86193 5.74987 5.75 5.8618 5.75 5.99987V11.9999C5.75011 12.1378 5.862 12.2499 6 12.2499H12C12.138 12.2499 12.2499 12.1378 12.25 11.9999V5.99987C12.25 5.8618 12.1381 5.74987 12 5.74987H6Z" fill="black"/>
</svg>
