<svg width="30" height="30" viewBox="0 0 30 30" fill="none" xmlns="http://www.w3.org/2000/svg">
<rect width="30" height="30" fill="white"/>
<path d="M5 18C5 17.4477 5.44772 17 6 17H12C12.5523 17 13 17.4477 13 18V24C13 24.5523 12.5523 25 12 25H6C5.44772 25 5 24.5523 5 24V18Z" fill="black" stroke="black" stroke-width="1.5"/>
<path d="M5 6C5 5.44772 5.44772 5 6 5H12C12.5523 5 13 5.44772 13 6V12C13 12.5523 12.5523 13 12 13H6C5.44772 13 5 12.5523 5 12V6Z" fill="black" stroke="black" stroke-width="1.5"/>
<path d="M17 18C17 17.4477 17.4477 17 18 17H24C24.5523 17 25 17.4477 25 18V24C25 24.5523 24.5523 25 24 25H18C17.4477 25 17 24.5523 17 24V18Z" fill="black" stroke="black" stroke-width="1.5"/>
<path d="M20.2929 4.70711C20.6834 4.31658 21.3166 4.31658 21.7071 4.70711L25.2935 8.2935C25.684 8.68402 25.684 9.31719 25.2935 9.70771L21.7071 13.2941C21.3166 13.6846 20.6834 13.6846 20.2929 13.2941L16.7065 9.70771C16.316 9.31719 16.316 8.68402 16.7065 8.2935L20.2929 4.70711Z" fill="black" stroke="black" stroke-width="1.5"/>
</svg>
