<svg width="30" height="30" viewBox="0 0 30 30" fill="none" xmlns="http://www.w3.org/2000/svg">
<rect width="30" height="30" fill="white"/>
<path d="M4.375 6.90234C4.375 7.9731 5.24302 8.84112 6.31377 8.84112H26.375V25.9023H7.375C5.71815 25.9023 4.375 24.5592 4.375 22.9023V6.90234Z" stroke="black" stroke-width="1.5"/>
<path d="M15.3242 4.09375L15.5361 4.48926L16.8281 6.90234H15.127L14.4258 5.59375H6.375C5.68464 5.59375 5.125 6.15339 5.125 6.84375C5.125 7.53411 5.68464 8.09375 6.375 8.09375H14.875V9.59375H6.375C4.85622 9.59375 3.625 8.36253 3.625 6.84375C3.625 5.32497 4.85622 4.09375 6.375 4.09375H15.3242Z" fill="black"/>
</svg>
