<svg width="24" height="24" viewBox="0 0 24 24" fill="none" xmlns="http://www.w3.org/2000/svg">
<path d="M12.334 4.4707L13.1377 5.9707H11.4355L11.2236 5.57422H5.86035C5.51962 5.57463 5.24316 5.85155 5.24316 6.19238C5.24348 6.52639 5.50934 6.79689 5.84082 6.80762H20.2861V19.9736H7.49316C5.42232 19.9734 3.74326 18.2945 3.74316 16.2236V6.23145H3.74512C3.74488 6.21844 3.74317 6.20544 3.74316 6.19238C3.74316 5.02313 4.69119 4.07463 5.86035 4.07422H12.1221L12.334 4.4707ZM5.24316 16.2236C5.24326 17.4661 6.25075 18.4734 7.49316 18.4736H18.7861V8.30762H11.6729V8.30957H5.86035C5.84729 8.30957 5.83429 8.30786 5.82129 8.30762H5.81934C5.76108 8.30761 5.7035 8.30389 5.64648 8.29883C5.64387 8.29857 5.64128 8.29812 5.63867 8.29785C5.50284 8.28524 5.37031 8.26031 5.24316 8.22363V16.2236Z" fill="black"/>
</svg>
