<svg preserveAspectRatio="none" width="100%" height="100%" overflow="visible" style="display: block;" viewBox="0 0 20 20" fill="none" xmlns="http://www.w3.org/2000/svg">
<g id="google-calendar 1" clip-path="url(#clip0_0_4)">
<path id="Vector" d="M0 15.3846H4.74359V4.74359H15.3846V0H2.37179C0.790598 0 0 0.747863 0 2.24359" fill="var(--fill-0, #4285F4)"/>
<path id="Vector_2" d="M15.2578 0V4.87179H20.0014V2.24359C20.0014 0.747863 19.2535 0 17.7578 0" fill="var(--fill-0, #1967D2)"/>
<path id="Vector_3" d="M15.2578 4.74365H20.0014V15.2565H15.2578" fill="var(--fill-0, #FBBC04)"/>
<path id="Vector_4" d="M0 15.2564V17.7564C0 19.2521 0.747863 20 2.24359 20H4.87179V15.2564" fill="var(--fill-0, #188038)"/>
<path id="Vector_5" d="M4.74219 15.2563H15.255V19.9999H4.74219" fill="var(--fill-0, #34A853)"/>
<path id="Vector_6" d="M15.2578 19.9999V15.2563H20.0014" fill="var(--fill-0, #EA4335)"/>
<path id="Vector_7" d="M6.66797 8.26893C6.73487 8.01192 6.88245 7.77691 7.09395 7.59063C7.30544 7.40434 7.57235 7.27426 7.86432 7.21517C8.1563 7.15608 8.46162 7.17035 8.74557 7.25636C9.02953 7.34238 9.28071 7.49668 9.47057 7.70173C9.66043 7.90677 9.78134 8.15433 9.81955 8.41625C9.85775 8.67818 9.81173 8.94395 9.68671 9.18335C9.56169 9.42276 9.36269 9.62618 9.11234 9.77049C8.86199 9.91481 8.57033 9.99422 8.27053 9.9997M8.27053 9.9997H7.69361M8.27053 9.9997C8.56954 10.0081 8.86029 10.0899 9.10988 10.236C9.35948 10.382 9.55795 10.5865 9.68285 10.8262C9.80775 11.0659 9.85408 11.3312 9.81661 11.5922C9.77914 11.8533 9.65935 12.0995 9.47081 12.3031C9.28227 12.5068 9.0325 12.6596 8.74977 12.7444C8.46703 12.8292 8.16261 12.8426 7.87095 12.783C7.5793 12.7234 7.31205 12.5933 7.09945 12.4072C6.88685 12.2212 6.73739 11.9868 6.66797 11.7305M10.8987 8.39714L12.6295 7.17919H12.8859V6.73047V13.333" stroke="var(--stroke-0, #4285F4)" stroke-width="0.961538" stroke-linejoin="bevel"/>
</g>
<defs>
<clipPath id="clip0_0_4">
<rect width="20" height="20" fill="white"/>
</clipPath>
</defs>
</svg>
