<svg width="24" height="24" viewBox="0 0 20 17.3438" fill="none" xmlns="http://www.w3.org/2000/svg">
<g id="google-drive 1" clip-path="url(#clip0_0_29)">
<path id="Vector" d="M6.50782 0H13.4609L20 11.2734H13.0313L6.50782 0Z" fill="url(#paint0_linear_0_29)"/>
<path id="Vector_2" d="M20 11.2734L16.5156 17.2969H3.46875L6.96094 11.2734H20Z" fill="url(#paint1_linear_0_29)"/>
<path id="Vector_3" d="M3.46875 17.2969L0 11.2734L6.50781 0L10 6.03906L3.46875 17.2969Z" fill="url(#paint2_linear_0_29)"/>
<path id="Vector_4" opacity="0.1" d="M3.46875 17.2969L9.96094 11.2734H6.96094L3.46875 17.2969Z" fill="var(--fill-0, black)"/>
<path id="Vector_5" opacity="0.1" d="M20 11.2734H13.0391L11.5078 8.63281L20 11.2734Z" fill="var(--fill-0, black)"/>
<path id="Vector_6" opacity="0.1" d="M6.50782 0L8.51563 8.59375L10 6.03906L6.50782 0Z" fill="var(--fill-0, black)"/>
</g>
<defs>
<linearGradient id="paint0_linear_0_29" x1="6.50782" y1="0" x2="2919.85" y2="3023.64" gradientUnits="userSpaceOnUse">
<stop stop-color="#F6C338"/>
<stop offset="0.522782" stop-color="#FFD351"/>
<stop offset="1" stop-color="#F6C338"/>
</linearGradient>
<linearGradient id="paint1_linear_0_29" x1="4235.47" y1="11.2734" x2="3122.9" y2="2659.17" gradientUnits="userSpaceOnUse">
<stop stop-color="#286EE6"/>
<stop offset="0.521046" stop-color="#4286FB"/>
<stop offset="1" stop-color="#286EE6"/>
</linearGradient>
<linearGradient id="paint2_linear_0_29" x1="1671.41" y1="-0.000146884" x2="-192.062" y2="3189.27" gradientUnits="userSpaceOnUse">
<stop stop-color="#069B5A"/>
<stop offset="0.531031" stop-color="#11AA62"/>
<stop offset="1" stop-color="#069B5A"/>
</linearGradient>
<clipPath id="clip0_0_29">
<rect width="20" height="17.3438" fill="white"/>
</clipPath>
</defs>
</svg>
