<svg width="20" height="20" viewBox="0 0 20 20" fill="none" xmlns="http://www.w3.org/2000/svg">
<path fill-rule="evenodd" clip-rule="evenodd" d="M10.0576 2.34082C12.4209 2.34096 14.5351 3.41377 15.9375 5.0957C15.9723 5.13741 16.0071 5.17922 16.041 5.22168C16.1869 5.40435 16.2304 5.63511 16.1826 5.84863L12.8809 9.10449L12.96 9.18555L9.33984 12.7373C9.04624 13.025 8.57598 13.0229 8.28516 12.7324L5.66211 10.1094L6.72266 9.04883L8.81934 11.1455L14.418 5.65527C13.3031 4.53452 11.7619 3.84094 10.0576 3.84082C6.65995 3.84082 3.90549 6.59555 3.90527 9.99316C3.90532 13.3909 6.65984 16.1455 10.0576 16.1455C13.4552 16.1453 16.2099 13.3908 16.21 9.99316C16.2099 9.2685 16.0822 8.57492 15.8516 7.93066L17.0078 6.79004C17.4578 7.76501 17.7099 8.85031 17.71 9.99316C17.7099 14.2192 14.2836 17.6453 10.0576 17.6455C5.83142 17.6455 2.40532 14.2194 2.40527 9.99316C2.40549 5.76712 5.83152 2.34082 10.0576 2.34082Z" fill="#36D96C"/>
</svg>
