<svg width="24" height="24" viewBox="0 0 24 24" fill="none" xmlns="http://www.w3.org/2000/svg">
<path fill-rule="evenodd" clip-rule="evenodd" d="M12.0693 2.95898C14.8589 2.95921 17.3542 4.22632 19.0098 6.21191C19.0507 6.26104 19.0919 6.31133 19.1318 6.36133C19.3684 6.65852 19.3439 7.08384 19.0781 7.35352L18.9111 7.51953L18.665 7.76074L18.6689 7.75781L18.4434 7.98047L18.4424 7.97852L11.1035 15.1787C10.81 15.4664 10.3387 15.464 10.0479 15.1738L6.90039 12.0264L7.96094 10.9658L10.582 13.5869L17.5137 6.79004C16.1415 5.3543 14.2105 4.46016 12.0693 4.45996C7.90913 4.45996 4.53613 7.83296 4.53613 11.9932C4.53666 16.1529 7.90946 19.5254 12.0693 19.5254C16.2289 19.525 19.601 16.1527 19.6016 11.9932C19.6016 11.0807 19.4377 10.2069 19.1406 9.39844L20.2949 8.26074C20.8119 9.39894 21.1016 10.6632 21.1016 11.9932C21.101 16.9811 17.0573 21.025 12.0693 21.0254C7.08103 21.0254 3.03666 16.9813 3.03613 11.9932C3.03613 7.00453 7.08071 2.95898 12.0693 2.95898Z" fill="#36D96C"/>
</svg>
