<svg width="24" height="24" viewBox="0 0 24 24" fill="none" xmlns="http://www.w3.org/2000/svg">
<path d="M6.15918 7.78809C6.35824 7.78792 6.54963 7.86709 6.69043 8.00781L9.12695 10.4443L8.06641 11.5049L6.91602 10.3545V18.5098H16.0088V20.0098H6.16602C5.96729 20.0098 5.77635 19.9304 5.63574 19.79C5.49515 19.6495 5.41609 19.4586 5.41602 19.2598V10.3486L4.26562 11.5039L3.73438 10.9746L3.20215 10.4453L5.62793 8.00879C5.76845 7.86774 5.96007 7.78831 6.15918 7.78809ZM18.2275 2.92285C18.6415 2.92312 18.9775 3.2588 18.9775 3.67285V12.5811L20.127 11.4277L20.6582 11.957L21.1904 12.4863L18.7646 14.9229C18.6241 15.064 18.4326 15.1433 18.2334 15.1436C18.0342 15.1437 17.843 15.0647 17.7021 14.9238L15.2656 12.4873L16.3262 11.4268L17.4775 12.5781V4.42285H8.45605V2.92285H18.2275Z" fill="#3D3D3D"/>
</svg>
