<svg width="20" height="20" viewBox="0 0 20 20" fill="none" xmlns="http://www.w3.org/2000/svg">
<path fill-rule="evenodd" clip-rule="evenodd" d="M16.583 16.584H9.25V15.084H16.583V16.584ZM11.1387 3.21776C11.432 2.92752 11.9045 2.92895 12.1963 3.22069L15.1133 6.1367C15.2538 6.27733 15.333 6.46917 15.333 6.66795C15.3328 6.8666 15.2538 7.05774 15.1133 7.19822L6.36426 15.9472C6.22417 16.0873 6.03307 16.1664 5.83496 16.167L2.91016 16.1758C2.71057 16.1763 2.51813 16.0971 2.37696 15.956C2.23596 15.8149 2.15768 15.6233 2.15821 15.4238L2.16602 12.498C2.16672 12.3011 2.24519 12.1124 2.38379 11.9726L7.67871 6.64744L8.20996 7.17674L8.74317 7.70506L3.66602 12.8105L3.65918 14.6738L5.52246 14.668L11.1133 9.07615L8.18164 6.14451L9.24219 5.08397L9.24707 5.08885L11.1387 3.21776ZM10.3076 6.1494L12.1738 8.01561L13.5225 6.66795L11.6641 4.80858L10.3076 6.1494Z" fill="#3D3D3D"/>
</svg>
