<svg width="24" height="24" viewBox="0 0 24 24" fill="none" xmlns="http://www.w3.org/2000/svg">
<g transform="translate(4.85, 3.65)">
<path d="M1.5 9.5498C1.5 12.6701 4.03016 15.2 7.15039 15.2002C10.2706 15.2 12.7998 12.6701 12.7998 9.5498V7.9502H14.2998V9.5498C14.2998 13.4985 11.099 16.7 7.15039 16.7002C3.20174 16.7 0 13.4985 0 9.5498V7.9502H1.5V9.5498ZM7.15039 0C9.77368 1.2885e-07 11.9003 2.12674 11.9004 4.75V9.5498C11.9004 12.1732 9.77374 14.2998 7.15039 14.2998C4.52704 14.2998 2.40039 12.1732 2.40039 9.5498V4.75C2.4005 2.12674 4.5271 0 7.15039 0ZM7.15039 1.5C5.35553 1.5 3.9005 2.95517 3.90039 4.75V9.5498C3.90039 11.3447 5.35547 12.7998 7.15039 12.7998C8.94531 12.7998 10.4004 11.3447 10.4004 9.5498V4.75C10.4003 2.95516 8.94525 1.5 7.15039 1.5Z" fill="black"/>
</g>
</svg>
