<svg width="24" height="24" viewBox="0 0 19.1045 19.9603" fill="none" xmlns="http://www.w3.org/2000/svg">
<g id="Group">
<path id="Vector" d="M1.20093 0.861079L12.2455 0.0453767C13.6021 -0.0710572 13.9508 0.00745261 14.8037 0.627546L18.3294 3.11125C18.9109 3.53839 19.1045 3.65483 19.1045 4.1199V17.7413C19.1045 18.595 18.7944 19.1 17.7093 19.1771L4.88357 19.9536C4.0692 19.9922 3.68131 19.8757 3.25483 19.3322L0.658683 15.9562C0.192948 15.3348 0 14.8697 0 14.3262V2.21837C0 1.52043 0.310047 0.938259 1.20093 0.861079Z" fill="var(--fill-0, white)"/>
<path id="Vector_2" d="M12.2455 0.0453767L1.20093 0.861079C0.310047 0.938259 0 1.52043 0 2.21837V14.3262C0 14.8697 0.192948 15.3348 0.658683 15.9562L3.25483 19.3322C3.68131 19.8757 4.0692 19.9922 4.88357 19.9536L17.7093 19.1771C18.7938 19.1 19.1045 18.595 19.1045 17.7413V4.1199C19.1045 3.67878 18.9302 3.5517 18.4172 3.17512C18.3877 3.15386 18.3582 3.13257 18.3287 3.11125L14.8037 0.627546C13.9508 0.00745261 13.6021 -0.0710572 12.2455 0.0453767ZM5.17366 3.89701C4.12642 3.96754 3.88889 3.9835 3.29408 3.4998L1.78177 2.29688C1.62808 2.14119 1.70526 1.94691 2.09248 1.90832L12.7099 1.13254C13.6015 1.05469 14.0659 1.3654 14.4145 1.63686L16.2355 2.95622C16.3134 2.99548 16.507 3.22768 16.2741 3.22768L5.30939 3.8877L5.17366 3.89701ZM3.95277 17.6249V6.06135C3.95277 5.55636 4.10779 5.32349 4.57219 5.28424L17.1657 4.54704C17.5928 4.50846 17.7858 4.77991 17.7858 5.28424V16.7706C17.7858 17.2756 17.7079 17.7027 17.0107 17.7413L4.95942 18.4399C4.26215 18.4785 3.95277 18.2463 3.95277 17.6249ZM15.849 6.68144C15.9262 7.03075 15.849 7.38005 15.4997 7.41997L14.9188 7.53507V16.0727C14.4145 16.3441 13.9501 16.4992 13.5622 16.4992C12.9421 16.4992 12.7871 16.3049 12.3227 15.7234L8.52429 9.74732V15.5291L9.72589 15.8012C9.72589 15.8012 9.72589 16.4998 8.7565 16.4998L6.08384 16.6548C6.00599 16.4992 6.08384 16.1113 6.35463 16.0341L7.05257 15.8405V8.19575L6.08384 8.11724C6.00599 7.76794 6.19961 7.26361 6.74252 7.22436L9.61012 7.03141L13.5622 13.0846V7.72935L12.5549 7.61358C12.4771 7.18577 12.7871 6.87506 13.1743 6.83713L15.849 6.68144Z" fill="var(--fill-0, black)"/>
</g>
</svg>
