<svg width="24" height="24" viewBox="0 0 24 24" fill="none" xmlns="http://www.w3.org/2000/svg">
<g transform="translate(3.5, 3.668)">
<path d="M6.80762 0.0126953H10.1924C10.6876 0.0127266 11.11 0.188183 11.4609 0.539062C11.8117 0.889858 11.9873 1.31233 11.9873 1.80762V2.67676H15.1924C15.6876 2.67679 16.11 2.85241 16.4609 3.20312C16.8117 3.55403 16.9872 3.97649 16.9873 4.47168V14.8564C16.9873 15.3518 16.8118 15.775 16.4609 16.126C16.11 16.4766 15.6876 16.6523 15.1924 16.6523H1.80762C1.31244 16.6523 0.889977 16.4766 0.539062 16.126C0.188234 15.775 0.0126953 15.3518 0.0126953 14.8564V4.47168C0.0127812 3.97649 0.18832 3.55403 0.539062 3.20312C0.890002 2.85241 1.31238 2.67679 1.80762 2.67676H5.0127V1.80762C5.01273 1.31233 5.18827 0.889858 5.53906 0.539062C5.89 0.188183 6.31239 0.0127267 6.80762 0.0126953ZM1.80762 4.15137C1.74714 4.15139 1.69081 4.17082 1.63867 4.20801L1.58691 4.25195C1.5212 4.31765 1.48741 4.39108 1.4873 4.47168V14.8564C1.4873 14.937 1.52134 15.0105 1.58691 15.0762V15.0771C1.65278 15.1432 1.72677 15.1767 1.80762 15.1768H3.0127V4.15137H1.80762ZM4.4873 15.1768H12.5127V4.15137H4.4873V15.1768ZM13.9873 15.1768H15.1924C15.2732 15.1767 15.3462 15.1422 15.4121 15.0762C15.478 15.0103 15.5127 14.9372 15.5127 14.8564V4.47168C15.5126 4.39108 15.4788 4.31765 15.4131 4.25195C15.3472 4.18592 15.2732 4.1514 15.1924 4.15137H13.9873V15.1768ZM6.80762 1.4873C6.72697 1.48734 6.65362 1.52121 6.58789 1.58691C6.52186 1.65278 6.48734 1.72676 6.4873 1.80762V2.67676H10.5127V1.80762C10.5127 1.72677 10.4781 1.65278 10.4121 1.58691C10.3464 1.52121 10.273 1.48734 10.1924 1.4873H6.80762Z" fill="#A3A3A3" stroke="#A3A3A3" stroke-width="0.025"/>
</g>
</svg>
