<svg width="26" height="26" viewBox="0 0 26 26" fill="none" xmlns="http://www.w3.org/2000/svg">
<g id="Frame">
<path id="Vector" d="M16.9667 4.60523L3.83234 12.9307L2.70297 11.1486V9.61294C2.70297 9.05394 2.98626 8.53286 3.45534 8.22844L11.0901 3.27436C12.2531 2.51982 13.7519 2.51928 14.9148 3.27382L16.9667 4.60523Z" fill="var(--fill-0, #40C4FF)"/>
<path id="Vector_2" d="M14.7967 3.20171C14.8362 3.225 14.8752 3.24938 14.9142 3.27484L20.8725 7.14017L6.09859 16.5045L3.83172 12.9279L14.6743 6.04167C15.7018 5.3895 15.7468 3.92213 14.7967 3.20171Z" fill="var(--fill-0, #1976D2)"/>
<path id="Vector_3" d="M11.9936 18.2926L6.09919 16.5046L18.6312 8.56047C19.6869 7.89151 19.6842 6.35047 18.6263 5.6853L18.57 5.65009L18.7325 5.75084L22.5464 8.22518C23.0154 8.52959 23.2987 9.05068 23.2987 9.60968V11.096L11.9936 18.2926Z" fill="var(--fill-0, #0D47A1)"/>
<path id="Vector_4" d="M11.3132 23.2917H19.7215C21.6964 23.2917 23.2976 21.6905 23.2976 19.7156V9.64005C23.2976 10.2234 22.9975 10.7662 22.5035 11.0765L9.99644 18.9296C9.32152 19.3532 8.91256 20.0942 8.91256 20.8905C8.91256 22.217 9.98723 23.2917 11.3132 23.2917Z" fill="var(--fill-0, #29B6F6)"/>
<path id="Vector_5" d="M14.7323 23.2912H6.27746C4.30255 23.2912 2.70138 21.6901 2.70138 19.7152V9.63257C2.70138 10.2154 3.00038 10.7571 3.49276 11.0674L15.9874 18.9449C16.6715 19.3761 17.0864 20.1284 17.0864 20.9372C17.0864 22.2372 16.0323 23.2912 14.7323 23.2912Z" fill="url(#paint0_radial_0_4)"/>
<path id="Vector_6" d="M14.7323 23.2912H6.27746C4.30255 23.2912 2.70138 21.6901 2.70138 19.7152V9.63257C2.70138 10.2154 3.00038 10.7571 3.49276 11.0674L15.9874 18.9449C16.6715 19.3761 17.0864 20.1284 17.0864 20.9372C17.0864 22.2372 16.0323 23.2912 14.7323 23.2912Z" fill="var(--fill-0, #80D8FF)"/>
<path id="Vector_7" d="M6.11101 19.6278C5.35376 19.6278 4.73247 19.3911 4.24659 18.9172C3.76072 18.4438 3.51751 17.8257 3.51751 17.0631C3.51751 16.2581 3.76397 15.6065 4.25743 15.1093C4.75088 14.612 5.39655 14.3634 6.19497 14.3634C6.94951 14.3634 7.56322 14.6012 8.03718 15.0773C8.5133 15.5534 8.75163 16.1807 8.75163 16.9596C8.75163 17.7602 8.50463 18.4053 8.01172 18.8955C7.52097 19.3841 6.88776 19.6278 6.11101 19.6278ZM6.13322 18.6231C6.54597 18.6231 6.87801 18.4822 7.12934 18.2006C7.38067 17.9189 7.50634 17.5267 7.50634 17.0246C7.50634 16.5013 7.38393 16.094 7.14018 15.8026C6.89588 15.5112 6.5698 15.366 6.16247 15.366C5.74267 15.366 5.40413 15.5166 5.14792 15.8172C4.89172 16.1157 4.76334 16.5111 4.76334 17.0035C4.76334 17.5034 4.89172 17.8988 5.14792 18.1897C5.40413 18.4784 5.73238 18.6231 6.13322 18.6231Z" fill="var(--fill-0, white)"/>
<path id="Vector_8" d="M3.49537 12.4584H8.96296C9.99592 12.4584 10.8333 13.2958 10.8333 14.3288V19.7964C10.8333 20.8293 9.99592 21.6667 8.96296 21.6667H3.49537C2.46242 21.6667 1.625 20.8293 1.625 19.7964V14.3288C1.625 13.2958 2.46242 12.4584 3.49537 12.4584Z" fill="var(--fill-0, #1565C0)"/>
<path id="Vector_9" d="M6.20362 19.7805C5.44528 19.7805 4.82237 19.5357 4.33541 19.0465C3.84845 18.5574 3.60524 17.9188 3.60524 17.1307C3.60524 16.2987 3.85224 15.6259 4.34678 15.1124C4.84133 14.5984 5.48808 14.3416 6.28812 14.3416C7.04428 14.3416 7.65962 14.5875 8.13412 15.0794C8.61133 15.5712 8.84966 16.2196 8.84966 17.0245C8.84966 17.8516 8.60266 18.5184 8.10812 19.0243C7.61628 19.5286 6.98145 19.7805 6.20362 19.7805ZM6.22528 18.7421C6.63858 18.7421 6.9717 18.5964 7.22358 18.3055C7.47545 18.0141 7.60166 17.6095 7.60166 17.0906C7.60166 16.55 7.47924 16.1291 7.23495 15.828C6.99012 15.5268 6.66349 15.3767 6.25508 15.3767C5.8342 15.3767 5.49512 15.5322 5.23837 15.8431C4.98162 16.1513 4.85324 16.5597 4.85324 17.0689C4.85324 17.5851 4.98162 17.9935 5.23837 18.2947C5.49512 18.5932 5.82391 18.7421 6.22528 18.7421Z" fill="var(--fill-0, white)"/>
</g>
<defs>
<radialGradient id="paint0_radial_0_4" cx="0" cy="0" r="1" gradientUnits="userSpaceOnUse" gradientTransform="translate(9.97667 14.9582) rotate(123.339) scale(11.7878 30.5907)">
<stop stop-color="#49DEFF"/>
<stop offset="0.724" stop-color="#29C3FF"/>
</radialGradient>
</defs>
</svg>
