<svg width="24" height="24" viewBox="0 0 24 24" fill="none" xmlns="http://www.w3.org/2000/svg">
<g transform="translate(3.039, 4.225)">
<path d="M5.14844 3.59961C7.0469 3.59965 8.60547 5.11916 8.60547 7.0166V8.34961C8.60547 9.62072 7.90319 10.7244 6.87305 11.3115C6.86478 11.3162 6.8561 11.3208 6.84766 11.3252L6.66309 11.4209L8.97266 12.5371C9.78438 12.9294 10.2998 13.7518 10.2998 14.6533V15.5498H8.7998V14.6533C8.7998 14.3272 8.61296 14.0296 8.31934 13.8877L5.93359 12.7354L6.25977 12.0596L6.53516 11.4863L1.95801 13.8672C1.67681 14.0135 1.5 14.3041 1.5 14.6211V15.5498H0V14.6211C0 13.7445 0.488058 12.9407 1.26562 12.5361L3.52051 11.3633C2.43784 10.7909 1.69141 9.65995 1.69141 8.34961V7.0166C1.69141 5.11922 3.25005 3.59975 5.14844 3.59961ZM12.7715 0C14.6699 4.93662e-05 16.2285 1.51956 16.2285 3.41699V4.75C16.2283 6.0209 15.5261 7.12489 14.4961 7.71191C14.4879 7.7166 14.4791 7.72121 14.4707 7.72559L14.2861 7.82129L16.5957 8.9375C17.4073 9.3298 17.9229 10.1522 17.9229 11.0537V13.5498H16.4229V11.0537C16.4229 10.7278 16.2367 10.43 15.9434 10.2881L13.5566 9.13574L13.8828 8.45996L14.1582 7.88672L9.91895 10.0918L9.57324 9.42578L9.22754 8.76074L11.1436 7.76367C10.061 7.19137 9.31464 6.06016 9.31445 4.75V3.41699C9.31445 1.51957 10.873 6.1177e-05 12.7715 0ZM5.14844 5.09961C4.05734 5.09975 3.19141 5.96863 3.19141 7.0166V8.34961C3.19141 9.07651 3.60587 9.71523 4.22754 10.041L3.87988 10.7061L3.53906 11.3535L6.12891 10.0078C6.71682 9.67275 7.10547 9.05259 7.10547 8.34961V7.0166C7.10547 5.96857 6.23962 5.09965 5.14844 5.09961ZM12.7715 1.5C11.6803 1.50006 10.8145 2.36898 10.8145 3.41699V4.75C10.8146 5.47672 11.229 6.1157 11.8506 6.44141L11.5029 7.10645L11.1621 7.75391L13.7578 6.4043C14.3428 6.06866 14.7283 5.45081 14.7285 4.75V3.41699C14.7285 2.36897 13.8627 1.50005 12.7715 1.5Z" fill="#A3A3A3"/>
</g>
</svg>
