<svg width="24" height="24" viewBox="0 0 24 24" fill="none" xmlns="http://www.w3.org/2000/svg">
<g transform="translate(3.494, 4.001)">
<path d="M17.0117 15.9989H8.51172V14.4989H17.0117V15.9989ZM10.791 0.165882C11.0857 -0.0720856 11.5174 -0.0538779 11.791 0.219593L15.292 3.71959L15.3848 3.83287C15.4664 3.95522 15.5117 4.10061 15.5117 4.24987C15.5116 4.44862 15.4325 4.63957 15.292 4.78014L4.792 15.2801C4.652 15.42 4.46155 15.4982 4.26367 15.4989L0.752933 15.5106C0.553261 15.5112 0.360918 15.4311 0.21973 15.2899C0.078753 15.1488 -0.000563988 14.9572 3.01922e-06 14.7577L0.0107452 11.2469C0.0114324 11.0497 0.0904826 10.8604 0.229495 10.7206L6.58301 4.33092L7.64649 5.38951L1.51075 11.5594L1.50293 14.0067L3.9502 13.9999L10.8096 7.14049L8.35254 4.68248L8.34961 4.68639L7.6875 4.01744L7.292 3.62194L8.35254 2.56139L8.35742 2.56627L10.7334 0.216663L10.791 0.165882ZM9.41895 3.6278L11.8701 6.07897L13.7012 4.24987L11.2588 1.80748L9.41895 3.6278Z" fill="black"/>
</g>
</svg>
