<svg width="24" height="25" viewBox="0 0 24 25" fill="none" xmlns="http://www.w3.org/2000/svg">
<path d="M16.4005 7.12864H18.3989C18.8407 7.12864 19.1989 7.48683 19.1989 7.92867L19.1985 18.407C19.1985 18.8488 18.8403 19.2069 18.3985 19.2069H5.59785C5.15601 19.2069 4.79784 18.8487 4.79785 18.4069L4.79823 7.92862C4.79824 7.4868 5.15641 7.12864 5.59823 7.12864H9.20048M12.0003 5.88027C12.0003 6.76393 11.284 7.48027 10.4003 7.48027C9.51665 7.48027 8.8003 6.76393 8.8003 5.88027C8.8003 4.99662 9.51665 4.28027 10.4003 4.28027C11.284 4.28027 12.0003 4.99662 12.0003 5.88027ZM12.0003 5.88027C12.0003 6.76393 12.7166 7.48027 13.6003 7.48027C14.4839 7.48027 15.2003 6.76393 15.2003 5.88027C15.2003 4.99662 14.4839 4.28027 13.6003 4.28027C12.7166 4.28027 12.0003 4.99662 12.0003 5.88027ZM8.00025 10.6787L12.0003 6.67871L16 10.6787" stroke="black" stroke-width="1.5" stroke-linejoin="round"/>
</svg>
