<svg width="24" height="17" viewBox="0 0 24 16.875" fill="none" xmlns="http://www.w3.org/2000/svg">
<g id="salesforce 1" clip-path="url(#clip0_0_4)">
<path id="Vector" d="M9.98908 1.84242C10.7623 1.03673 11.8389 0.537056 13.0295 0.537056C14.6121 0.537056 15.993 1.41959 16.7283 2.72973C17.3673 2.44421 18.0747 2.28539 18.8189 2.28539C21.6735 2.28539 23.9877 4.61981 23.9877 7.49932C23.9877 10.3792 21.6735 12.7136 18.8189 12.7136C18.4705 12.7136 18.13 12.6787 17.8007 12.6121C17.1532 13.7672 15.9192 14.5476 14.5029 14.5476C13.9099 14.5476 13.3491 14.4107 12.8498 14.1672C12.1934 15.7113 10.664 16.7939 8.88147 16.7939C7.02521 16.7939 5.4432 15.6194 4.83595 13.9722C4.57057 14.0285 4.29564 14.0579 4.01352 14.0579C1.80343 14.0579 0.0117188 12.2477 0.0117188 10.0144C0.0117188 8.51779 0.816725 7.21106 2.01279 6.51193C1.76654 5.94532 1.62959 5.31996 1.62959 4.6625C1.62959 2.09413 3.71468 0.0121117 6.28646 0.0121117C7.7964 0.0121117 9.13831 0.730026 9.98908 1.84242Z" fill="var(--fill-0, #00A1E0)"/>
<g id="Group">
<path id="Vector_2" d="M3.48473 8.71464C3.4697 8.75392 3.49019 8.76211 3.49497 8.76894C3.54006 8.80173 3.58582 8.8253 3.63193 8.8516C3.87647 8.98138 4.10735 9.01929 4.34882 9.01929C4.84064 9.01929 5.14597 8.75767 5.14597 8.33656V8.32836C5.14597 7.939 4.80136 7.79761 4.47792 7.69549L4.43591 7.68183C4.19205 7.60259 3.98167 7.53428 3.98167 7.37376V7.36522C3.98167 7.22792 4.10462 7.12683 4.2952 7.12683C4.50695 7.12683 4.75832 7.19718 4.92021 7.28667C4.92021 7.28667 4.96769 7.3174 4.98511 7.2713C4.99467 7.24671 5.07664 7.02607 5.08518 7.00216C5.0944 6.97621 5.078 6.95708 5.06127 6.94684C4.8765 6.83447 4.62103 6.75762 4.35668 6.75762L4.30749 6.75796C3.85735 6.75796 3.54313 7.02983 3.54313 7.41952V7.42772C3.54313 7.83859 3.88979 7.97179 4.2146 8.06469L4.26685 8.08074C4.50354 8.15349 4.70744 8.21599 4.70744 8.38266V8.39086C4.70744 8.54319 4.57492 8.65658 4.36112 8.65658C4.27812 8.65658 4.01343 8.65487 3.72756 8.4742C3.69307 8.45404 3.67292 8.43936 3.64628 8.42331C3.63227 8.41443 3.59709 8.39906 3.58172 8.44551L3.48473 8.71464Z" fill="var(--fill-0, white)"/>
<path id="Vector_3" d="M10.6847 8.71464C10.6697 8.75392 10.6902 8.76211 10.6949 8.76894C10.74 8.80173 10.7858 8.8253 10.8319 8.8516C11.0764 8.98138 11.3073 9.01929 11.5488 9.01929C12.0406 9.01929 12.3459 8.75767 12.3459 8.33656V8.32836C12.3459 7.939 12.0013 7.79761 11.6779 7.69549L11.6359 7.68183C11.392 7.60259 11.1816 7.53428 11.1816 7.37376V7.36522C11.1816 7.22792 11.3046 7.12683 11.4952 7.12683C11.7069 7.12683 11.9583 7.19718 12.1202 7.28667C12.1202 7.28667 12.1677 7.3174 12.1851 7.2713C12.1946 7.24671 12.2766 7.02607 12.2851 7.00216C12.2944 6.97621 12.278 6.95708 12.2612 6.94684C12.0765 6.83447 11.821 6.75762 11.5566 6.75762L11.5075 6.75796C11.0573 6.75796 10.7431 7.02983 10.7431 7.41952V7.42772C10.7431 7.83859 11.0898 7.97179 11.4146 8.06469L11.4668 8.08074C11.7035 8.15349 11.9077 8.21599 11.9077 8.38266V8.39086C11.9077 8.54319 11.7749 8.65658 11.5611 8.65658C11.4781 8.65658 11.2134 8.65487 10.9275 8.4742C10.893 8.45404 10.8725 8.44004 10.8466 8.42331C10.8377 8.4175 10.796 8.40145 10.7817 8.44551L10.6847 8.71464Z" fill="var(--fill-0, white)"/>
<path id="Vector_4" d="M15.6004 7.88986C15.6004 8.12791 15.556 8.31542 15.4685 8.44793C15.3821 8.57908 15.2513 8.64295 15.0689 8.64295C14.8862 8.64295 14.7561 8.57942 14.6711 8.44793C14.585 8.31576 14.5413 8.12791 14.5413 7.88986C14.5413 7.65215 14.585 7.46498 14.6711 7.33383C14.7561 7.20405 14.8862 7.14086 15.0689 7.14086C15.2513 7.14086 15.3821 7.20405 15.4689 7.33383C15.556 7.46498 15.6004 7.65215 15.6004 7.88986ZM16.0109 7.44859C15.9706 7.31232 15.9078 7.1921 15.8241 7.09202C15.7404 6.99161 15.6345 6.91101 15.5089 6.85226C15.3835 6.79386 15.2353 6.76415 15.0689 6.76415C14.9023 6.76415 14.7541 6.79386 14.6287 6.85226C14.503 6.91101 14.3971 6.99161 14.3131 7.09202C14.2298 7.19244 14.1669 7.31266 14.1263 7.44859C14.0863 7.58418 14.0662 7.73241 14.0662 7.88986C14.0662 8.04731 14.0863 8.19588 14.1263 8.33113C14.1669 8.46706 14.2294 8.58728 14.3135 8.68769C14.3971 8.7881 14.5034 8.86837 14.6287 8.9254C14.7544 8.98244 14.9023 9.01147 15.0689 9.01147C15.2353 9.01147 15.3832 8.98244 15.5089 8.9254C15.6342 8.86837 15.7404 8.7881 15.8241 8.68769C15.9078 8.58762 15.9706 8.4674 16.0109 8.33113C16.0512 8.19554 16.0714 8.04697 16.0714 7.88986C16.0714 7.73275 16.0512 7.58418 16.0109 7.44859Z" fill="var(--fill-0, white)"/>
<path id="Vector_5" d="M19.3817 8.57929C19.368 8.53933 19.3294 8.55435 19.3294 8.55435C19.2696 8.57724 19.2061 8.59841 19.1385 8.609C19.0698 8.61959 18.9944 8.62505 18.9134 8.62505C18.7146 8.62505 18.5569 8.56597 18.4438 8.44916C18.3304 8.33235 18.2669 8.14348 18.2676 7.88801C18.2683 7.65542 18.3243 7.48056 18.425 7.34736C18.5251 7.21484 18.6774 7.14687 18.8806 7.14687C19.05 7.14687 19.1791 7.16634 19.3144 7.20903C19.3144 7.20903 19.3468 7.22304 19.3622 7.18069C19.3981 7.08096 19.4247 7.00957 19.463 6.89994C19.4739 6.86886 19.4472 6.85554 19.4377 6.85178C19.3844 6.83095 19.2587 6.79714 19.1638 6.78279C19.075 6.76913 18.9711 6.76196 18.8557 6.76196C18.6832 6.76196 18.5295 6.79133 18.398 6.85008C18.2669 6.90848 18.1555 6.98908 18.0674 7.0895C17.9793 7.18991 17.9124 7.31013 17.8676 7.44606C17.8232 7.58165 17.8007 7.73056 17.8007 7.88801C17.8007 8.22853 17.8926 8.50381 18.0739 8.70531C18.2556 8.9075 18.5285 9.01031 18.8844 9.01031C19.0948 9.01031 19.3106 8.96761 19.4657 8.90648C19.4657 8.90648 19.4954 8.89213 19.4824 8.85764L19.3817 8.57929Z" fill="var(--fill-0, white)"/>
<path id="Vector_6" d="M20.0997 7.66185C20.1192 7.52968 20.1557 7.4197 20.2121 7.33398C20.2971 7.20385 20.4269 7.13247 20.6093 7.13247C20.7917 7.13247 20.9122 7.20419 20.9986 7.33398C21.056 7.4197 21.081 7.53446 21.0909 7.66185H20.0997ZM21.4819 7.37121C21.4471 7.23971 21.3607 7.10685 21.304 7.04606C21.2145 6.94975 21.1271 6.88246 21.0403 6.84489C20.9269 6.7964 20.791 6.76429 20.6421 6.76429C20.4686 6.76429 20.3111 6.79332 20.1834 6.85343C20.0553 6.91354 19.9477 6.99551 19.8634 7.09763C19.779 7.19941 19.7155 7.32066 19.6752 7.4583C19.6345 7.59525 19.614 7.74451 19.614 7.90196C19.614 8.06214 19.6352 8.21139 19.6772 8.34561C19.7196 8.48086 19.7872 8.60006 19.8787 8.69877C19.9699 8.79815 20.0874 8.87602 20.2281 8.93033C20.3678 8.98429 20.5376 9.0123 20.7326 9.01196C21.1339 9.01059 21.3453 8.92111 21.4324 8.87295C21.4478 8.86441 21.4625 8.84938 21.444 8.80635L21.3532 8.5519C21.3395 8.51399 21.3009 8.528 21.3009 8.528C21.2015 8.56488 21.0601 8.63114 20.7305 8.63046C20.515 8.63012 20.3552 8.56659 20.2551 8.4672C20.1523 8.36542 20.1021 8.21583 20.0932 8.00476L21.4829 8.00613C21.4829 8.00613 21.5195 8.00544 21.5232 7.96992C21.5246 7.9549 21.5711 7.6844 21.4819 7.37121Z" fill="var(--fill-0, white)"/>
<path id="Vector_7" d="M8.96983 7.66185C8.98964 7.52968 9.02584 7.4197 9.0822 7.33398C9.16724 7.20385 9.29702 7.13247 9.4794 7.13247C9.66179 7.13247 9.78235 7.20419 9.8691 7.33398C9.92614 7.4197 9.95107 7.53446 9.96097 7.66185H8.96983ZM10.3517 7.37121C10.3169 7.23971 10.2308 7.10685 10.1741 7.04606C10.0846 6.94975 9.99718 6.88246 9.91043 6.84489C9.79704 6.7964 9.6611 6.76429 9.51219 6.76429C9.33903 6.76429 9.18124 6.79332 9.05351 6.85343C8.92543 6.91354 8.81784 6.99551 8.73348 7.09763C8.64912 7.19941 8.5856 7.32066 8.5453 7.4583C8.505 7.59525 8.48416 7.74451 8.48416 7.90196C8.48416 8.06214 8.50534 8.21139 8.54735 8.34561C8.5897 8.48086 8.65732 8.60006 8.74885 8.69877C8.84004 8.79815 8.95753 8.87602 9.09825 8.93033C9.23794 8.98429 9.40768 9.0123 9.6027 9.01196C10.004 9.01059 10.2154 8.92111 10.3025 8.87295C10.3179 8.86441 10.3326 8.84938 10.3141 8.80635L10.2236 8.5519C10.2096 8.51399 10.171 8.528 10.171 8.528C10.0716 8.56488 9.93058 8.63114 9.60031 8.63046C9.38514 8.63012 9.2253 8.56659 9.12523 8.4672C9.02243 8.36542 8.97222 8.21583 8.96334 8.00476L10.3531 8.00613C10.3531 8.00613 10.3896 8.00544 10.3934 7.96992C10.3947 7.9549 10.4412 7.6844 10.3517 7.37121Z" fill="var(--fill-0, white)"/>
<path id="Vector_8" d="M5.96645 8.57166C5.91215 8.52829 5.90463 8.51736 5.88619 8.48935C5.85887 8.44666 5.84486 8.38587 5.84486 8.30868C5.84486 8.18641 5.88517 8.09863 5.96884 8.03955C5.96782 8.03989 6.08838 7.93538 6.37186 7.93914C6.57097 7.94187 6.74892 7.97124 6.74892 7.97124V8.60309H6.74926C6.74926 8.60309 6.57268 8.641 6.37391 8.65295C6.09111 8.67003 5.96543 8.57132 5.96645 8.57166ZM6.5194 7.59521C6.46305 7.59111 6.38996 7.58872 6.30253 7.58872C6.18333 7.58872 6.06823 7.60374 5.9603 7.63277C5.85169 7.66181 5.75401 7.70723 5.67 7.76734C5.58564 7.82779 5.51767 7.90498 5.46849 7.99651C5.41931 8.08805 5.39437 8.19597 5.39437 8.31688C5.39437 8.43983 5.41555 8.54673 5.4579 8.63417C5.50025 8.72194 5.56139 8.79503 5.63926 8.85138C5.71645 8.90774 5.81173 8.94906 5.92239 8.974C6.03134 8.99893 6.15498 9.01157 6.29023 9.01157C6.43265 9.01157 6.57473 8.99995 6.71237 8.97639C6.84865 8.95316 7.016 8.91935 7.06245 8.90876C7.10856 8.89783 7.15979 8.88383 7.15979 8.88383C7.19428 8.87529 7.19155 8.83841 7.19155 8.83841L7.19087 7.56754C7.19087 7.28885 7.11641 7.08221 6.96989 6.95414C6.82405 6.8264 6.60923 6.76185 6.33156 6.76185C6.22739 6.76185 6.05969 6.7762 5.95928 6.79635C5.95928 6.79635 5.65565 6.85509 5.53065 6.95277C5.53065 6.95277 5.50333 6.96985 5.51835 7.0081L5.61672 7.27245C5.62901 7.30661 5.66214 7.29499 5.66214 7.29499C5.66214 7.29499 5.67273 7.2909 5.68502 7.28372C5.95245 7.13823 6.29057 7.14267 6.29057 7.14267C6.44085 7.14267 6.55629 7.17272 6.63416 7.23249C6.70998 7.29055 6.74857 7.37833 6.74857 7.56344V7.62219C6.62904 7.60511 6.5194 7.59521 6.5194 7.59521Z" fill="var(--fill-0, white)"/>
<path id="Vector_9" d="M17.7281 6.87914C17.7387 6.84772 17.7165 6.83269 17.7072 6.82928C17.6837 6.82005 17.5655 6.79512 17.4743 6.78932C17.2998 6.77873 17.2028 6.8081 17.116 6.84704C17.03 6.88597 16.9343 6.94881 16.8811 7.0202V6.85113C16.8811 6.82757 16.8643 6.80878 16.8411 6.80878H16.4849C16.4617 6.80878 16.4449 6.82757 16.4449 6.85113V8.92393C16.4449 8.94716 16.464 8.96628 16.4873 8.96628H16.8524C16.8756 8.96628 16.8944 8.94716 16.8944 8.92393V7.88839C16.8944 7.74938 16.9097 7.61072 16.9405 7.52362C16.9705 7.43756 17.0115 7.36857 17.0621 7.31904C17.113 7.26986 17.1707 7.23537 17.2339 7.2159C17.2984 7.19609 17.3698 7.1896 17.4204 7.1896C17.4931 7.1896 17.573 7.20838 17.573 7.20838C17.5997 7.21146 17.6147 7.19506 17.6236 7.17081C17.6475 7.10729 17.7151 6.91705 17.7281 6.87914Z" fill="var(--fill-0, white)"/>
<path id="Vector_10" d="M14.301 5.91846C14.2566 5.9048 14.2163 5.89557 14.1637 5.88567C14.1104 5.87611 14.0469 5.87132 13.9748 5.87132C13.7235 5.87132 13.5254 5.94237 13.3864 6.0824C13.2481 6.22174 13.1541 6.43384 13.107 6.71288L13.0899 6.8068H12.7743C12.7743 6.8068 12.7361 6.80543 12.7279 6.8471L12.6763 7.13638C12.6726 7.16371 12.6845 7.18112 12.7214 7.18112H13.0284L12.717 8.92024C12.6927 9.06027 12.6647 9.17537 12.6336 9.2628C12.6032 9.34887 12.5735 9.41342 12.5366 9.46055C12.5011 9.50564 12.4676 9.53911 12.4096 9.55857C12.3618 9.57463 12.3064 9.58214 12.246 9.58214C12.2125 9.58214 12.1678 9.57668 12.1346 9.56985C12.1018 9.56336 12.0844 9.55618 12.0595 9.5456C12.0595 9.5456 12.0236 9.53193 12.0093 9.5678C11.998 9.59751 11.9161 9.82258 11.9061 9.85025C11.8966 9.87791 11.9102 9.89943 11.9277 9.90592C11.9686 9.92026 11.999 9.92983 12.0547 9.94315C12.1319 9.96125 12.1971 9.96227 12.2583 9.96227C12.386 9.96227 12.5028 9.94417 12.5995 9.90933C12.6965 9.87416 12.7812 9.81302 12.8563 9.73037C12.9372 9.64088 12.9881 9.5473 13.0366 9.41923C13.0848 9.29286 13.1261 9.13575 13.1589 8.95269L13.4721 7.18112H13.9298C13.9298 7.18112 13.9684 7.18249 13.9762 7.14048L14.0281 6.85154C14.0315 6.82388 14.0199 6.8068 13.9827 6.8068H13.5384C13.5407 6.79689 13.5609 6.64047 13.6118 6.49327C13.6336 6.43077 13.6746 6.37988 13.7091 6.34504C13.7433 6.31088 13.7826 6.28664 13.8256 6.27263C13.8697 6.25829 13.9199 6.25146 13.9748 6.25146C14.0165 6.25146 14.0578 6.25624 14.0889 6.26273C14.132 6.27195 14.1487 6.27673 14.16 6.28015C14.2054 6.29381 14.2115 6.28049 14.2204 6.25863L14.3266 5.96696C14.3376 5.93553 14.3106 5.92221 14.301 5.91846Z" fill="var(--fill-0, white)"/>
<path id="Vector_11" d="M8.09242 8.92405C8.09242 8.94728 8.07568 8.96606 8.05246 8.96606H7.68394C7.66071 8.96606 7.64432 8.94728 7.64432 8.92405V5.95813C7.64432 5.93491 7.66071 5.91612 7.68394 5.91612H8.05246C8.07568 5.91612 8.09242 5.93491 8.09242 5.95813V8.92405Z" fill="var(--fill-0, white)"/>
</g>
</g>
<defs>
<clipPath id="clip0_0_4">
<rect width="24" height="16.875" fill="white"/>
</clipPath>
</defs>
</svg>
