<svg width="24" height="25" viewBox="0 0 24 25" fill="none" xmlns="http://www.w3.org/2000/svg">
<path d="M18.2002 4.05078C19.1665 4.05099 19.9502 4.83441 19.9502 5.80078V16.001C19.9501 16.9673 19.1664 17.7508 18.2002 17.751H9.61426C9.54805 17.751 9.48432 17.7774 9.4375 17.8242L7.53027 19.7314L6.46973 18.6709L8.37695 16.7637C8.70508 16.4356 9.15023 16.251 9.61426 16.251H18.2002C18.338 16.2508 18.4501 16.1388 18.4502 16.001V5.80078C18.4502 5.66284 18.3381 5.55099 18.2002 5.55078H5.7998C5.66185 5.55091 5.5498 5.66279 5.5498 5.80078V20H4.0498V5.80078C4.0498 4.83436 4.83342 4.05091 5.7998 4.05078H18.2002ZM8.7998 9.89844C9.24157 9.89844 9.60048 10.2565 9.60059 10.6982C9.60059 11.1401 9.24163 11.498 8.7998 11.498C8.35818 11.4978 8 11.1399 8 10.6982C8.00011 10.2567 8.35824 9.89867 8.7998 9.89844ZM12 9.89844C12.4416 9.8986 12.7997 10.2566 12.7998 10.6982C12.7998 11.14 12.4417 11.4979 12 11.498C11.5582 11.498 11.2002 11.1401 11.2002 10.6982C11.2003 10.2565 11.5582 9.89844 12 9.89844ZM15.2002 9.89844C15.642 9.89844 15.9999 10.2565 16 10.6982C16 11.1401 15.642 11.498 15.2002 11.498C14.7585 11.4979 14.4004 11.14 14.4004 10.6982C14.4005 10.2566 14.7585 9.89854 15.2002 9.89844Z" fill="black"/>
</svg>
