<svg width="24" height="24" viewBox="0 0 20 20" fill="none" xmlns="http://www.w3.org/2000/svg">
<g id="slack-icon 1" clip-path="url(#clip0_0_89)">
<path id="Vector" d="M4.20635 12.6032C4.20635 13.7619 3.26984 14.6984 2.11111 14.6984C0.952381 14.6984 0.015873 13.7619 0.015873 12.6032C0.015873 11.4444 0.952381 10.5079 2.11111 10.5079H4.20635V12.6032ZM5.25397 12.6032C5.25397 11.4444 6.19048 10.5079 7.34921 10.5079C8.50794 10.5079 9.44444 11.4444 9.44444 12.6032V17.8413C9.44444 19 8.50794 19.9365 7.34921 19.9365C6.19048 19.9365 5.25397 19 5.25397 17.8413V12.6032Z" fill="var(--fill-0, #E01E5A)"/>
<path id="Vector_2" d="M7.34921 4.19048C6.19048 4.19048 5.25397 3.25397 5.25397 2.09524C5.25397 0.936508 6.19048 0 7.34921 0C8.50794 0 9.44445 0.936508 9.44445 2.09524V4.19048H7.34921ZM7.34921 5.25397C8.50794 5.25397 9.44445 6.19048 9.44445 7.34921C9.44445 8.50794 8.50794 9.44445 7.34921 9.44445H2.09524C0.936508 9.44445 0 8.50794 0 7.34921C0 6.19048 0.936508 5.25397 2.09524 5.25397H7.34921Z" fill="var(--fill-0, #36C5F0)"/>
<path id="Vector_3" d="M15.746 7.34921C15.746 6.19048 16.6825 5.25397 17.8413 5.25397C19 5.25397 19.9365 6.19048 19.9365 7.34921C19.9365 8.50794 19 9.44444 17.8413 9.44444H15.746V7.34921ZM14.6984 7.34921C14.6984 8.50794 13.7619 9.44444 12.6032 9.44444C11.4444 9.44444 10.5079 8.50794 10.5079 7.34921V2.09524C10.5079 0.936508 11.4444 0 12.6032 0C13.7619 0 14.6984 0.936508 14.6984 2.09524V7.34921Z" fill="var(--fill-0, #2EB67D)"/>
<path id="Vector_4" d="M12.6032 15.746C13.7619 15.746 14.6984 16.6825 14.6984 17.8413C14.6984 19 13.7619 19.9365 12.6032 19.9365C11.4444 19.9365 10.5079 19 10.5079 17.8413V15.746H12.6032ZM12.6032 14.6984C11.4444 14.6984 10.5079 13.7619 10.5079 12.6032C10.5079 11.4444 11.4444 10.5079 12.6032 10.5079H17.8571C19.0159 10.5079 19.9524 11.4444 19.9524 12.6032C19.9524 13.7619 19.0159 14.6984 17.8571 14.6984H12.6032Z" fill="var(--fill-0, #ECB22E)"/>
</g>
<defs>
<clipPath id="clip0_0_89">
<rect width="20" height="20" fill="white"/>
</clipPath>
</defs>
</svg>
