<svg width="64" height="64" viewBox="0 0 64 64" fill="none" xmlns="http://www.w3.org/2000/svg">
<path d="M54.2516 50.6064L45.2662 22.5481C43.4437 16.8687 37.9761 13.0117 31.9999 13.0117C26.0238 13.0117 20.5562 16.8687 18.7337 22.5481L9.74829 50.6064H17.335L26.1086 21.2342C26.3629 20.4289 27.0834 19.8779 27.9311 19.8779H36.0264C36.8741 19.8779 37.5946 20.4289 37.849 21.2342L46.6225 50.6064H54.2092H54.2516ZM31.9999 39.5442C34.7125 39.5442 36.8741 37.3402 36.8741 34.67C36.8741 31.9998 34.6701 29.7958 31.9999 29.7958C29.3297 29.7958 27.1258 31.9998 27.1258 34.67C27.1258 37.3402 29.3297 39.5442 31.9999 39.5442Z" fill="black"/>
</svg>
